<svg id="Capa_1" data-name="Capa 1" xmlns="http://www.w3.org/2000/svg" xmlns:xlink="http://www.w3.org/1999/xlink" viewBox="0 0 502.47 491.75"><defs><style>.cls-1{fill:url(#Degradado_sin_nombre_12);}.cls-2{fill:url(#Degradado_sin_nombre_12-2);}.cls-3{fill:url(#Degradado_sin_nombre_12-3);}</style><linearGradient id="Degradado_sin_nombre_12" x1="301.82" y1="696.17" x2="305.82" y2="892.17" gradientTransform="matrix(-1, 0, 0, 1, 814.19, 0)" gradientUnits="userSpaceOnUse"><stop offset="0" stop-color="#00ead4"/><stop offset="1" stop-color="#0098ba"/></linearGradient><linearGradient id="Degradado_sin_nombre_12-2" x1="302.66" y1="696.15" x2="306.66" y2="892.15" xlink:href="#Degradado_sin_nombre_12"/><linearGradient id="Degradado_sin_nombre_12-3" x1="300.92" y1="639.04" x2="300.92" y2="639.04" xlink:href="#Degradado_sin_nombre_12"/></defs><title>gear4</title><path class="cls-1" d="M743.46,815.85c-11.75,4.39-20.36,7.22-31.13,10.88-5,1.69-7.44,2.49-8.25,6.54a188.09,188.09,0,0,1-9.34,32.54,6.38,6.38,0,0,0,1.23,7.27q15.07,18,30,36.12c4.41,5.33,4.69,7.12,1,12.9-5.9,9.13-12,18.14-18.08,27.15a8.7,8.7,0,0,1-9.86,3.41c-15.19-4.84-30.49-9.35-45.66-14.27-3.87-1.26-6.57-.6-9.4,2.17A166.87,166.87,0,0,1,617.53,961c-2.56,1.65-3.38,3.56-3.16,6.63,1.11,15.61,1.82,31.26,3,46.86,0.55,7.34-4.15,8.61-12.61,11.68-7.44,2.7-13.44,5.08-20.75,7.82-6.59,2.47-10.38,4-13.81-.66-9.11-12.29-18.46-24.41-27.39-36.83-3-4.14-5.93-5.78-11.4-4.76a96.49,96.49,0,0,1-29.73,1.15c-4.86-.62-7.52.06-10,4.13-7.72,12.83-16,25.34-23.94,38-3.43,5.64-8.87,5.82-13.64,4.12-10.09-2.88-16.61-4.78-26.71-7.61-8.33-2.33-9.2-3.57-9.24-12.13-0.06-14.81-.29-29.62-0.41-44.44,0-2.59-.27-4.76-3-6.2a177.62,177.62,0,0,1-31.42-21.17c-1.87-1.54-3.49-1.75-5.86-.78-13.7,5.56-27.51,10.88-41.27,16.31-8.44,3.33-9.92,2.93-15.55-4.29s-11.48-14.7-17.25-22c-4.76-6-4.83-7.36-.46-13.55q12.95-18.31,25.89-36.63c1.51-2.15,3.19-4.06,1.64-7.19a170.46,170.46,0,0,1-13-36,4.61,4.61,0,0,0-3.91-3.82c-14.52-3.59-29-7.46-43.47-11.13-8.15-2.07-9.43-3.43-9.8-11.92q-0.64-14.73-1.07-29.47c-0.2-6.76,1-8.19,7.49-10.41,14.64-5,29.25-10,43.89-15,2.32-.79,4-1.77,4.53-4.59a176.77,176.77,0,0,1,10.35-35.87c1-2.5.67-4.17-1.08-6.26-9.84-11.71-19.5-23.56-29.21-35.38-4.55-5.54-4.77-7.25-.84-13.31,5.52-8.52,11.26-16.9,16.91-25.33,3.8-5.67,5.61-6.32,12.09-4.33q21.88,6.75,43.73,13.57c3,0.94,5.56,1.44,8.2-1.15,8.71-8.54,18.61-15.61,28.84-22.2,1.88-1.21,2.76-2.51,2.6-4.86-1.06-15.59-2-31.18-3-46.78-0.46-7.26.39-8.87,7.4-11.57,9.78-3.77,19.69-7.21,29.49-11,4.6-1.76,7.84-.63,10.76,3.32,9.66,13.1,19.58,26,29.26,39.12,1.76,2.38,3.55,3.14,6.64,2.55a97.77,97.77,0,0,1,34.07-.92c3.18,0.52,4.93-.31,6.39-2.65,8.29-13.24,16.69-26.41,25-39.64,4-6.37,6-7.18,13.64-5l28.29,8c7,2,8.08,3.41,8.16,10.43,0.18,15.61.46,31.22,0.52,46.84,0,3.73,1.19,6.15,4.63,8a152.19,152.19,0,0,1,26.34,18c3,2.47,5.52,2.79,9,1.35,14-5.73,28.15-11.2,42.24-16.75A12.27,12.27,0,0,1,699.67,629c6,7.54,11.89,15.18,17.86,22.75,5,6.32,4.94,7.67.16,14.38-9,12.59-17.81,25.3-26.83,37.87-2.48,3.45-2,6.09.65,10.87a77.78,77.78,0,0,1,9.17,25.73c0.88,5.11,1.91,7.34,5.7,8.29,15.18,3.79,30.32,7.73,45.48,11.58,7,1.76,8.38,3.28,8.87,10.59,0.38,5.65.9,22.24,0.91,29C761.63,811.9,757.59,810.57,743.46,815.85Zm-219-154C444.85,653.31,383.29,712.15,376.38,781c-7.6,75.8,48.07,139.42,118.62,146.81,79.46,8.32,145.74-52,148.55-129C645.26,730.38,595.45,669.43,524.44,661.83Z" transform="translate(-259.16 -548.39)"/><path class="cls-2" d="M512.46,897.6c-59,1.52-105.54-46.74-105.56-102.59,0-57.59,47.19-102.59,101.58-103.1,57.56-.54,104.64,47,103.6,102.87C612.9,851.25,566.46,896.21,512.46,897.6Zm-3.33-34.11c38.41,0,68.18-30.36,68.17-68.87,0-37-31.23-68.35-68.41-67.71-37.8.65-67.57,29.75-67.95,68.72C441.65,833.66,470.79,863.45,509.13,863.49Z" transform="translate(-259.16 -548.39)"/><path class="cls-3" d="M513.27,639" transform="translate(-259.16 -548.39)"/></svg>