<svg width="336.58" height="324.15" id="Capa_1" data-name="Capa 1" xmlns="http://www.w3.org/2000/svg" xmlns:xlink="http://www.w3.org/1999/xlink" viewBox="0 0 336.58 324.15">
    <defs>
        <style>
            .cls-1 {
                fill: url("#Degradado_sin_nombre_12");
            }
            .cls-2 {
                fill: url("#Degradado_sin_nombre_12-2");
            }
            .cls-3 {
                fill: url("#Degradado_sin_nombre_12-3");
            }
        </style>
        <linearGradient id="Degradado_sin_nombre_12" x1="286.15" y1="179.94" x2="284.15" y2="303.94" gradientUnits="userSpaceOnUse"><stop offset="0" stop-color="#00ead4"/><stop offset="1" stop-color="#0098ba"/></linearGradient><linearGradient id="Degradado_sin_nombre_12-2" x1="286.12" y1="179.94" x2="284.12" y2="303.94" xlink:href="#Degradado_sin_nombre_12"/><linearGradient id="Degradado_sin_nombre_12-3" x1="234.34" y1="355.24" x2="234.34" y2="355.24" xlink:href="#Degradado_sin_nombre_12"/></defs>
    <title>gear3</title><path
        class="cls-1"
        d="M240.85,82.58c4.91,0.74,7.69,3.63,10.44,7.19,9.09,11.77,18.3,23.43,27.42,35.17a6.55,6.55,0,0,0,5.9,2.79,108.18,108.18,0,0,1,30.63,3.82,10.39,10.39,0,0,0,9.38-1.64c12.87-9.09,25.81-18.07,38.69-27.14,5.4-3.8,7.27-3.91,12.44.13q12,9.38,23.86,19c6.21,5,6.45,6.31,3.55,13.59-5.72,14.35-11.38,28.73-17.25,43a6.45,6.45,0,0,0,.49,6.49,105.9,105.9,0,0,1,13,31.17,7.27,7.27,0,0,0,4.59,5.38c14.63,6.69,29.16,13.6,43.84,20.17,4.63,2.07,6.09,5.24,5.41,9.92-1.48,10.21-2.81,20.45-4.43,30.64-1.26,7.91-2.66,9-10.44,10.07-15.15,2.1-30.28,4.34-45.43,6.4a5.62,5.62,0,0,0-4.48,3.44,108.87,108.87,0,0,1-21.12,27.69,8,8,0,0,0-2.5,7.14c1.38,15.24,2.61,30.49,4,45.73,0.65,7.34,0,8.59-6.79,11.3-9.28,3.71-18.56,7.41-27.87,11-7.48,2.91-8.84,2.35-13.88-4.12-9.19-11.82-18.54-23.52-27.72-35.35A6.09,6.09,0,0,0,287,363a111,111,0,0,1-34-4.51,8.77,8.77,0,0,0-8.32,1.5c-12.48,8.82-25,17.55-37.55,26.31-5.73,4-7.65,4-13.27-.49-7.84-6.2-15.73-12.35-23.45-18.69-5.81-4.78-6.07-6.48-3.33-13.29,5.65-14,11.2-28.13,16.94-42.14a7.63,7.63,0,0,0-.37-7.47,115.56,115.56,0,0,1-12.37-30.36,8.55,8.55,0,0,0-5.25-6.13c-14.2-6.56-28.35-13.22-42.54-19.79-6.32-2.93-7.29-4.41-6.35-11.15,1.39-9.9,2.83-19.79,4.39-29.66,1.25-7.93,2.82-9.15,10.92-10.27,15-2.06,30-4.34,45-6.42,2.85-.39,4.84-1.38,6.32-4.06a106.17,106.17,0,0,1,17.75-23.41,12.56,12.56,0,0,0,4-11.08c-1.65-15.13-2.88-30.3-4.2-45.46-0.63-7.18.53-9,7.28-11.61,9.75-3.81,19.53-7.57,29.28-11.39A10.34,10.34,0,0,1,240.85,82.58Zm44.88,91.6c-36.8.21-70.19,27.37-71.22,69.37-0.93,37.72,27.21,70.89,69.53,71.85,38,0.86,70.62-28.28,71.52-69.4C356.39,208.22,327.07,175.51,285.73,174.18Z"
        transform="translate(-116.81 -82.58)"/><path class="cls-2" d="M285,298.92c-30.72,0-54.06-23.58-54-54.58,0-29.95,23.87-53.41,54.06-53.61A54.09,54.09,0,1,1,285,298.92ZM285,281.87a36.09,36.09,0,1,0-36-36.4A36.38,36.38,0,0,0,285,281.87Z" transform="translate(-116.81 -82.58)"/><path class="cls-3" d="M234.34,355.24" transform="translate(-116.81 -82.58)"/></svg>
