<svg width="402.54" height="402.94" id="Capa_1" data-name="Capa 1" xmlns="http://www.w3.org/2000/svg" xmlns:xlink="http://www.w3.org/1999/xlink" viewBox="0 0 402.54 402.94">
    <defs>
        <style>
            .cls-1 {
                fill: url("#Degradado_sin_nombre_12");
            }
            .cls-2 {
                fill: url("#Degradado_sin_nombre_12-2");
            }
            .cls-3 {
                fill: url("#Degradado_sin_nombre_12-3");
            }
        </style>
        <linearGradient id="Degradado_sin_nombre_12" x1="560.36" y1="384" x2="560.36" y2="524" gradientUnits="userSpaceOnUse"><stop offset="0" stop-color="#00ead4"/><stop offset="1" stop-color="#0098ba"/></linearGradient><linearGradient id="Degradado_sin_nombre_12-2" x1="561.33" y1="384" x2="561.33" y2="524" xlink:href="#Degradado_sin_nombre_12"/><linearGradient id="Degradado_sin_nombre_12-3" x1="416.54" y1="367.1" x2="416.54" y2="367.1" xlink:href="#Degradado_sin_nombre_12"/></defs>
    <title>gear2</title><path
        class="cls-1"
        d="M755.61,444.17c-3.73,2-19.73,9-38.52,18-4.91,2.34-6.5,2.11-6.95,7.7-0.6,8.61-3.13,23.26-6,31.06a5.5,5.5,0,0,0,1,5.9c9.63,12.53,19,25.29,28.67,37.76,2.94,3.78,2.45,6.94-.05,10.35-6.19,8.47-12.33,17-18.65,25.34-4.73,6.26-6.54,6.65-14,3.94-13.28-4.8-26.6-9.51-39.82-14.45a7.61,7.61,0,0,0-7.48,1.25,135,135,0,0,1-26.86,16.63,6.44,6.44,0,0,0-4,5.66c-2,15.5-4.43,31-6.4,46.47-0.57,4.53-3,6.42-7,7-10.69,1.67-21.38,3.35-32.1,4.84-7,1-8.59,0-11.64-6.47-6.25-13.23-12.55-26.43-18.62-39.74-1.6-3.52-3.79-3.92-8.8-4.29-9.88-.74-17.54-3.35-26.53-6.84-3.81-1.48-5.88-.38-8.34,1.48-12.33,9.34-24.8,18.5-37,28-3.58,2.77-6.72,2.56-10,.21-9-6.53-18-13.21-27-19.8-4.23-3.1-5-6.75-3.16-11.76,5.33-14.15,10.18-28.48,15.44-42.65,1-2.66,1-4.64-.73-6.87A120.76,120.76,0,0,1,425.19,517c-1.45-3.25-4-3.66-6.76-4-15.66-2.18-31.32-4.43-47-6.36-4.49-.55-6.55-3-7.18-7-1.75-11-3.38-22-5-33.08-0.69-4.77.69-8.09,5.6-10.3,13.94-6.25,27.6-13.12,41.51-19.45,3.51-1.6,5.11-3.81,5.56-7.43a117.75,117.75,0,0,1,5.93-25.85,8.49,8.49,0,0,0-1.22-8.09C407,382.89,397.69,370.14,388,357.68c-3.28-4.22-3.59-7.91-.43-12.15,6.18-8.27,12.17-16.69,18.38-24.93,4.82-6.38,6.42-6.57,14-3.78,14.45,5.33,29,10.45,43.46,15.72a5.19,5.19,0,0,0,5.53-1,131.45,131.45,0,0,1,24.85-15.64c2.83-1.38,3.71-3.41,4.08-6.22,2.07-15.8,4.29-31.58,6.3-47.39,0.57-4.51,2.57-7.33,7.19-8,11.51-1.74,23-3.57,34.55-5.17,4-.56,6.79,1.17,8.63,5.16,6.6,14.33,13.58,28.48,20.24,42.78,1.1,2.35,2.23,3.57,5,4a147,147,0,0,1,30,7.05c2.76,1,4.53-.23,6.33-1.58q18.5-13.89,36.88-27.94c6.06-4.62,7.54-4.7,13.57-.25,7.91,5.83,15.85,11.61,23.7,17.53,6.52,4.92,6.84,6.41,4.12,13.9-5.09,14-10.05,28.15-15.24,42.16a4.78,4.78,0,0,0,.81,5.37,150.45,150.45,0,0,1,17.28,27.4c1.09,2.25,2.66,3.05,5,3.36q22.73,3,45.43,6.2c7.41,1.06,8.48,2.4,9.55,9.66,1.35,9.21,2.56,18.57,4,27.76C762,438.06,762.33,440.62,755.61,444.17ZM657.68,451c-0.82-54.9-43.5-97-96.84-96.84-54.73.17-96.82,43-96.51,97,0.32,55.62,43.62,96.09,96.61,96.43C614.19,547.93,658.11,503.34,657.68,451Z"
        transform="translate(-359.09 -249.03)"/><path
        class="cls-2"
        d="M635.55,450.72c1,37.37-30.72,74-74.3,74a74.38,74.38,0,0,1-74.17-75.22C487.45,408,522.4,374.65,563.95,376,602.75,377.17,636.61,410.54,635.55,450.72ZM560.76,500c26.67,0.15,49.06-21.9,49.37-48.61s-22-49.4-48.89-49.65-49.47,22-49.55,48.89A49.28,49.28,0,0,0,560.76,500Z"
        transform="translate(-359.09 -249.03)"/><path class="cls-3" d="M416.54,367.1" transform="translate(-359.09 -249.03)"/></svg>
