<svg id="Capa_1" data-name="Capa 1" xmlns="http://www.w3.org/2000/svg" xmlns:xlink="http://www.w3.org/1999/xlink" viewBox="0 0 402.54 402.94"><defs><style>.cls-1{fill:url(#Degradado_sin_nombre_12);}.cls-2{fill:url(#Degradado_sin_nombre_12-2);}.cls-3{fill:url(#Degradado_sin_nombre_12-3);}</style><linearGradient id="Degradado_sin_nombre_12" x1="560.36" y1="384" x2="560.36" y2="524" gradientTransform="matrix(-1, 0, 0, 1, 814.19, 0)" gradientUnits="userSpaceOnUse"><stop offset="0" stop-color="#00ead4"/><stop offset="1" stop-color="#0098ba"/></linearGradient><linearGradient id="Degradado_sin_nombre_12-2" x1="561.33" y1="384" x2="561.33" y2="524" xlink:href="#Degradado_sin_nombre_12"/><linearGradient id="Degradado_sin_nombre_12-3" x1="416.54" y1="367.1" x2="416.54" y2="367.1" xlink:href="#Degradado_sin_nombre_12"/></defs><title>gear5</title><path class="cls-1" d="M53,431.64c1.48-9.19,2.69-18.55,4-27.76,1.06-7.26,2.13-8.6,9.55-9.66Q89.27,391,112,388c2.36-.31,3.93-1.11,5-3.36a150.45,150.45,0,0,1,17.28-27.4,4.78,4.78,0,0,0,.81-5.37c-5.19-14-10.15-28.11-15.24-42.16-2.71-7.49-2.4-9,4.12-13.9,7.84-5.92,15.79-11.7,23.7-17.53,6-4.44,7.5-4.37,13.57.25q18.4,14,36.88,27.94c1.8,1.35,3.57,2.6,6.33,1.58a147,147,0,0,1,30-7.05c2.74-.39,3.87-1.61,5-4,6.66-14.3,13.64-28.45,20.24-42.78,1.84-4,4.6-5.71,8.63-5.16,11.53,1.6,23,3.44,34.55,5.17,4.62,0.7,6.61,3.52,7.19,8,2,15.81,4.23,31.59,6.3,47.39,0.37,2.81,1.25,4.84,4.08,6.22a131.45,131.45,0,0,1,24.85,15.64,5.19,5.19,0,0,0,5.53,1c14.48-5.27,29-10.39,43.46-15.72,7.56-2.79,9.17-2.61,14,3.78,6.22,8.24,12.21,16.65,18.38,24.93,3.16,4.24,2.85,7.94-.43,12.15-9.68,12.47-19,25.22-28.62,37.74a8.49,8.49,0,0,0-1.22,8.09,117.75,117.75,0,0,1,5.93,25.85c0.45,3.62,2,5.84,5.56,7.43,13.91,6.32,27.57,13.19,41.51,19.45,4.91,2.2,6.29,5.53,5.6,10.3-1.61,11-3.23,22.07-5,33.08-0.63,4-2.68,6.4-7.18,7-15.69,1.93-31.35,4.18-47,6.36-2.77.39-5.32,0.8-6.76,4a120.76,120.76,0,0,1-15.83,25.92c-1.77,2.23-1.72,4.21-.73,6.87,5.27,14.17,10.11,28.51,15.44,42.65,1.89,5,1.07,8.66-3.16,11.76-9,6.59-17.94,13.27-27,19.8-3.26,2.35-6.4,2.57-10-.21-12.22-9.48-24.69-18.64-37-28-2.46-1.86-4.53-3-8.34-1.48-9,3.49-16.65,6.11-26.53,6.84-5,.37-7.2.77-8.8,4.29-6.07,13.31-12.38,26.51-18.62,39.74-3.05,6.47-4.62,7.45-11.64,6.47-10.72-1.49-21.41-3.17-32.1-4.84-4-.62-6.45-2.52-7-7-2-15.51-4.37-31-6.4-46.47a6.44,6.44,0,0,0-4-5.66A135,135,0,0,1,160.42,571a7.61,7.61,0,0,0-7.48-1.25c-13.23,4.94-26.54,9.65-39.82,14.45-7.5,2.71-9.32,2.33-14-3.94-6.32-8.37-12.46-16.88-18.65-25.34-2.5-3.41-3-6.57-.05-10.35,9.7-12.47,19-25.23,28.67-37.76a5.5,5.5,0,0,0,1-5.9c-2.83-7.8-5.36-22.46-6-31.06-0.45-5.59-2-5.36-6.95-7.7-18.78-9-34.78-16-38.52-18C51.86,440.62,52.16,438.06,53,431.64ZM253.24,547.58c53-.35,96.29-40.81,96.61-96.43,0.31-54-41.77-96.79-96.51-97-53.34-.16-96,41.94-96.84,96.84C156.08,503.34,200,547.93,253.24,547.58Z" transform="translate(-52.56 -249.03)"/><path class="cls-2" d="M250.24,376c41.55-1.31,76.5,32.05,76.87,73.56a74.38,74.38,0,0,1-74.17,75.22c-43.57,0-75.28-36.65-74.3-74C177.58,410.54,211.44,377.17,250.24,376Zm52.25,74.64c-0.08-26.91-22.61-49.15-49.55-48.89s-49.19,22.92-48.89,49.65S226.75,500.1,253.43,500A49.28,49.28,0,0,0,302.49,450.59Z" transform="translate(-52.56 -249.03)"/><path class="cls-3" d="M397.65,367.1" transform="translate(-52.56 -249.03)"/></svg>