<svg width="502.47" height="491.75" id="Capa_1" data-name="Capa 1" xmlns="http://www.w3.org/2000/svg" xmlns:xlink="http://www.w3.org/1999/xlink" viewBox="0 0 502.47 491.75">
    <defs>
        <style>
            .cls-1 {
                fill: url("#Degradado_sin_nombre_12");
            }
            .cls-2 {
                fill: url("#Degradado_sin_nombre_12-2");
            }
            .cls-3 {
                fill: url("#Degradado_sin_nombre_12-3");
            }
        </style>
        <linearGradient id="Degradado_sin_nombre_12" x1="301.82" y1="696.17" x2="305.82" y2="892.17" gradientUnits="userSpaceOnUse"><stop offset="0" stop-color="#00ead4"/><stop offset="1" stop-color="#0098ba"/></linearGradient><linearGradient id="Degradado_sin_nombre_12-2" x1="302.66" y1="696.15" x2="306.66" y2="892.15" xlink:href="#Degradado_sin_nombre_12"/><linearGradient id="Degradado_sin_nombre_12-3" x1="300.92" y1="639.04" x2="300.92" y2="639.04" xlink:href="#Degradado_sin_nombre_12"/></defs>
    <title>gear1</title><path
        class="cls-1"
        d="M52.56,800c0-6.71.53-23.3,0.91-29,0.49-7.3,1.91-8.82,8.87-10.59,15.16-3.85,30.3-7.79,45.48-11.58,3.79-.95,4.82-3.18,5.7-8.29a77.78,77.78,0,0,1,9.17-25.73c2.61-4.78,3.12-7.42.65-10.87-9-12.57-17.85-25.28-26.83-37.87-4.78-6.7-4.83-8.05.16-14.38,6-7.57,11.85-15.21,17.86-22.75a12.27,12.27,0,0,1,14.09-3.76c14.1,5.54,28.22,11,42.24,16.75,3.52,1.44,6.09,1.12,9-1.35a152.19,152.19,0,0,1,26.34-18c3.44-1.82,4.61-4.24,4.63-8,0.07-15.61.34-31.22,0.52-46.84,0.08-7,1.2-8.47,8.16-10.43l28.29-8c7.61-2.14,9.63-1.34,13.64,5,8.31,13.23,16.7,26.4,25,39.64,1.47,2.34,3.21,3.17,6.39,2.65a97.77,97.77,0,0,1,34.07.92c3.08,0.58,4.88-.17,6.64-2.55,9.67-13.1,19.59-26,29.26-39.12,2.91-4,6.16-5.08,10.76-3.32,9.79,3.75,19.7,7.19,29.49,11,7,2.7,7.86,4.31,7.4,11.57-1,15.59-1.91,31.19-3,46.78-0.16,2.35.72,3.65,2.6,4.86,10.23,6.59,20.13,13.66,28.84,22.2,2.64,2.59,5.21,2.09,8.2,1.15q21.84-6.86,43.73-13.57c6.48-2,8.29-1.34,12.09,4.33,5.66,8.43,11.39,16.81,16.91,25.33,3.93,6.06,3.71,7.76-.84,13.31-9.71,11.82-19.37,23.67-29.21,35.38-1.75,2.09-2.12,3.76-1.08,6.26a176.77,176.77,0,0,1,10.35,35.87c0.52,2.83,2.21,3.81,4.53,4.59,14.64,5,29.25,10,43.89,15,6.53,2.22,7.69,3.66,7.49,10.41q-0.43,14.74-1.07,29.47c-0.37,8.5-1.65,9.86-9.8,11.92-14.5,3.68-28.95,7.55-43.47,11.13a4.61,4.61,0,0,0-3.91,3.82,170.46,170.46,0,0,1-13,36c-1.55,3.13.13,5,1.64,7.19q12.93,18.33,25.89,36.63c4.37,6.19,4.3,7.51-.46,13.55q-8.66,11-17.25,22c-5.63,7.22-7.11,7.62-15.55,4.29-13.76-5.43-27.56-10.75-41.27-16.31-2.37-1-4-.76-5.86.78a177.62,177.62,0,0,1-31.42,21.17c-2.77,1.43-3,3.61-3,6.2-0.12,14.81-.35,29.62-0.41,44.44,0,8.56-.9,9.79-9.24,12.13-10.1,2.83-16.62,4.73-26.71,7.61-4.77,1.69-10.21,1.52-13.64-4.12-8-12.67-16.22-25.18-23.94-38-2.45-4.07-5.11-4.75-10-4.13a96.49,96.49,0,0,1-29.73-1.15c-5.47-1-8.43.63-11.4,4.76-8.93,12.42-18.28,24.54-27.39,36.83-3.43,4.62-7.22,3.12-13.81.66-7.31-2.74-13.32-5.12-20.75-7.82-8.46-3.07-13.16-4.35-12.61-11.68,1.18-15.61,1.89-31.25,3-46.86,0.22-3.07-.6-5-3.16-6.63a166.87,166.87,0,0,1-26.37-20.51c-2.83-2.77-5.53-3.42-9.4-2.17-15.17,4.92-30.47,9.43-45.66,14.27a8.7,8.7,0,0,1-9.86-3.41c-6.09-9-12.19-18-18.08-27.15-3.73-5.78-3.46-7.58,1-12.9q15-18.08,30-36.12a6.38,6.38,0,0,0,1.23-7.27,188.09,188.09,0,0,1-9.34-32.54c-0.81-4.05-3.29-4.85-8.25-6.54-10.77-3.66-19.38-6.49-31.13-10.88C56.6,810.57,52.56,811.9,52.56,800Zm118.08-1.24c2.81,77,69.09,137.34,148.55,129,70.54-7.39,126.22-71,118.62-146.81-6.91-68.87-68.47-127.71-148.06-119.19C218.74,669.43,168.93,730.38,170.64,798.81Z"
        transform="translate(-52.56 -548.39)"/><path
        class="cls-2"
        d="M202.11,794.79c-1-55.92,46-103.41,103.6-102.87,54.39,0.51,101.6,45.51,101.58,103.1,0,55.85-46.55,104.1-105.56,102.59C247.73,896.21,201.29,851.25,202.11,794.79Zm171.14,0.84c-0.38-39-30.15-68.07-67.95-68.72-37.18-.64-68.39,30.72-68.41,67.71,0,38.51,29.76,68.91,68.17,68.87S372.54,833.66,373.25,795.63Z"
        transform="translate(-52.56 -548.39)"/><path class="cls-3" d="M300.92,639" transform="translate(-52.56 -548.39)"/></svg>
