<svg id="Capa_1" data-name="Capa 1" xmlns="http://www.w3.org/2000/svg" xmlns:xlink="http://www.w3.org/1999/xlink" viewBox="0 0 336.58 324.15"><defs><style>.cls-1{fill:url(#Degradado_sin_nombre_12);}.cls-2{fill:url(#Degradado_sin_nombre_12-2);}.cls-3{fill:url(#Degradado_sin_nombre_12-3);}</style><linearGradient id="Degradado_sin_nombre_12" x1="286.15" y1="179.94" x2="284.15" y2="303.94" gradientTransform="matrix(-1, 0, 0, 1, 814.19, 0)" gradientUnits="userSpaceOnUse"><stop offset="0" stop-color="#00ead4"/><stop offset="1" stop-color="#0098ba"/></linearGradient><linearGradient id="Degradado_sin_nombre_12-2" x1="286.12" y1="179.94" x2="284.12" y2="303.94" xlink:href="#Degradado_sin_nombre_12"/><linearGradient id="Degradado_sin_nombre_12-3" x1="234.34" y1="355.24" x2="234.34" y2="355.24" xlink:href="#Degradado_sin_nombre_12"/></defs><title>gear6</title><path class="cls-1" d="M576.35,83.4c9.75,3.82,19.53,7.58,29.28,11.39,6.75,2.64,7.91,4.43,7.28,11.61-1.32,15.16-2.55,30.33-4.2,45.46a12.56,12.56,0,0,0,4,11.08,106.17,106.17,0,0,1,17.75,23.41c1.47,2.67,3.47,3.66,6.32,4.06,15,2.08,30,4.35,45,6.42,8.1,1.11,9.67,2.33,10.92,10.27,1.56,9.87,3,19.76,4.39,29.66,0.95,6.74,0,8.22-6.35,11.15-14.19,6.57-28.34,13.23-42.54,19.79a8.55,8.55,0,0,0-5.25,6.13,115.56,115.56,0,0,1-12.37,30.36,7.63,7.63,0,0,0-.37,7.47c5.74,14,11.29,28.09,16.94,42.14,2.74,6.81,2.48,8.51-3.33,13.29-7.72,6.35-15.61,12.49-23.45,18.69-5.62,4.45-7.55,4.5-13.27.49-12.52-8.76-25.07-17.49-37.55-26.31a8.77,8.77,0,0,0-8.32-1.5,111,111,0,0,1-34,4.51,6.09,6.09,0,0,0-5.5,2.62c-9.18,11.83-18.53,23.53-27.72,35.35-5,6.47-6.4,7-13.88,4.12-9.31-3.62-18.59-7.32-27.87-11-6.77-2.71-7.43-4-6.79-11.3,1.34-15.24,2.58-30.49,4-45.73a8,8,0,0,0-2.5-7.14,108.87,108.87,0,0,1-21.12-27.69,5.62,5.62,0,0,0-4.48-3.44c-15.15-2.06-30.28-4.3-45.43-6.4-7.78-1.08-9.19-2.17-10.44-10.07-1.62-10.19-3-20.43-4.43-30.64-0.68-4.68.78-7.85,5.41-9.92,14.68-6.57,29.21-13.49,43.84-20.17a7.27,7.27,0,0,0,4.59-5.38,105.9,105.9,0,0,1,13-31.17,6.45,6.45,0,0,0,.49-6.49c-5.86-14.29-11.53-28.67-17.25-43-2.9-7.28-2.66-8.54,3.55-13.59q11.82-9.61,23.86-19c5.17-4,7-3.92,12.44-.13,12.88,9.06,25.83,18,38.69,27.14a10.39,10.39,0,0,0,9.38,1.64,108.18,108.18,0,0,1,30.63-3.82,6.55,6.55,0,0,0,5.9-2.79c9.12-11.74,18.33-23.41,27.42-35.17,2.75-3.56,5.53-6.45,10.44-7.19A10.34,10.34,0,0,1,576.35,83.4ZM458.63,246c0.91,41.11,33.52,70.26,71.52,69.4,42.31-1,70.45-34.12,69.53-71.85-1-42-34.43-69.16-71.22-69.37C487.12,175.51,457.8,208.22,458.63,246Z" transform="translate(-360.8 -82.58)"/><path class="cls-2" d="M475,245.36a54,54,0,0,1,54.12-54.62c30.19,0.2,54,23.66,54.06,53.61,0,31-23.32,54.58-54,54.58A53.71,53.71,0,0,1,475,245.36Zm90.2,0.12a36.09,36.09,0,1,0-36,36.4A36.29,36.29,0,0,0,565.22,245.48Z" transform="translate(-360.8 -82.58)"/><path class="cls-3" d="M579.85,355.24" transform="translate(-360.8 -82.58)"/></svg>