<svg width="35" height="36" viewBox="0 0 35 36" xmlns="http://www.w3.org/2000/svg">
    <title>0C6A20D0-701B-442A-82BE-701AC15188C3</title>
    <g fill="#FFF" fill-rule="evenodd"><path
        d="M29.999 15.272c-.13 0-.141-.157-.307-.29V5.82c-.166-.132-.227-.22-.357-.389H5.615c-.13.17-.141.257-.307.39v9.162c-.166.133-.227.29-.357.29H.307c-.13 0-.141-.157-.307-.29V.39C.166.257.177.17.307 0h34.336c.13.17.191.257.357.39v14.592c-.166.133-.227.29-.357.29H30z"/><path d="M20.322 26.664V9.186c-.165-.132-.263-.152-.392-.322h-4.678c-.13.17-.238.19-.404.322v17.478c.166.132.274.187.404.357h4.678c.13-.17.227-.225.392-.357"/><path
        d="M34.643 35.895H.307c-.13 0-.141-.157-.307-.29V21.014c.166-.133.177-.22.307-.39H4.95c.13.17.191.257.357.39v9.163c.166.132.177.289.307.289h23.72c.13 0 .191-.157.357-.29v-9.162c.166-.133.177-.22.307-.39h4.644c.13.17.191.257.357.39v14.593c-.166.132-.227.289-.357.289"/></g>
</svg>
