<?xml version="1.0" encoding="utf-8"?>
<!-- Generator: Adobe Illustrator 19.1.1, SVG Export Plug-In . SVG Version: 6.00 Build 0)  -->
<svg version="1.1" id="Capa_1" xmlns="http://www.w3.org/2000/svg" xmlns:xlink="http://www.w3.org/1999/xlink" x="0px" y="0px"
	 viewBox="0 0 820 1104" style="enable-background:new 0 0 820 1104;" xml:space="preserve">
<style type="text/css">
	.st0{fill:url(#SVGID_1_);}
	.st1{fill:url(#SVGID_2_);}
	.st2{fill:url(#SVGID_3_);}
	.st3{fill:url(#SVGID_4_);}
	.st4{fill:url(#SVGID_5_);}
	.st5{fill:url(#SVGID_6_);}
	.st6{fill:url(#SVGID_7_);}
	.st7{fill:url(#SVGID_8_);}
	.st8{fill:url(#SVGID_9_);}
</style>
<g>
	<linearGradient id="SVGID_1_" gradientUnits="userSpaceOnUse" x1="286.1462" y1="179.9378" x2="284.1462" y2="303.9378">
		<stop  offset="0" style="stop-color:#00EAD4"/>
		<stop  offset="1" style="stop-color:#0098BA"/>
	</linearGradient>
	<path class="st0" d="M240.8,82.6c4.9,0.7,7.7,3.6,10.4,7.2c9.1,11.8,18.3,23.4,27.4,35.2c1.5,2,3.3,2.9,5.9,2.8
		c10.4-0.3,20.6,1.2,30.6,3.8c3.6,0.9,6.4,0.4,9.4-1.6c12.9-9.1,25.8-18.1,38.7-27.1c5.4-3.8,7.3-3.9,12.4,0.1
		c8,6.3,16,12.6,23.9,19c6.2,5,6.5,6.3,3.5,13.6c-5.7,14.4-11.4,28.7-17.2,43c-1,2.5-0.8,4.3,0.5,6.5c5.9,9.7,10.5,20,13,31.2
		c0.6,2.7,2.1,4.3,4.6,5.4c14.6,6.7,29.2,13.6,43.8,20.2c4.6,2.1,6.1,5.2,5.4,9.9c-1.5,10.2-2.8,20.5-4.4,30.6
		c-1.3,7.9-2.7,9-10.4,10.1c-15.1,2.1-30.3,4.3-45.4,6.4c-2.3,0.3-3.5,1.6-4.5,3.4c-5.5,10.4-12.7,19.6-21.1,27.7
		c-2.2,2.1-2.8,4.3-2.5,7.1c1.4,15.2,2.6,30.5,4,45.7c0.6,7.3,0,8.6-6.8,11.3c-9.3,3.7-18.6,7.4-27.9,11c-7.5,2.9-8.8,2.4-13.9-4.1
		c-9.2-11.8-18.5-23.5-27.7-35.3c-1.5-1.9-3.1-2.7-5.5-2.6c-11.6,0.3-23-1.3-34-4.5c-3.3-1-5.7-0.3-8.3,1.5
		c-12.5,8.8-25,17.5-37.6,26.3c-5.7,4-7.6,4-13.3-0.5c-7.8-6.2-15.7-12.3-23.4-18.7c-5.8-4.8-6.1-6.5-3.3-13.3
		c5.6-14,11.2-28.1,16.9-42.1c1.1-2.7,1.1-4.9-0.4-7.5c-5.5-9.5-9.8-19.6-12.4-30.4c-0.7-3.1-2.5-4.9-5.3-6.1
		c-14.2-6.6-28.3-13.2-42.5-19.8c-6.3-2.9-7.3-4.4-6.3-11.1c1.4-9.9,2.8-19.8,4.4-29.7c1.3-7.9,2.8-9.2,10.9-10.3
		c15-2.1,30-4.3,45-6.4c2.8-0.4,4.8-1.4,6.3-4.1c4.8-8.6,10.8-16.4,17.8-23.4c3.1-3.1,4.5-6.4,4-11.1c-1.7-15.1-2.9-30.3-4.2-45.5
		c-0.6-7.2,0.5-9,7.3-11.6c9.8-3.8,19.5-7.6,29.3-11.4C238.2,83.2,239.8,82.6,240.8,82.6z M285.7,174.2
		c-36.8,0.2-70.2,27.4-71.2,69.4c-0.9,37.7,27.2,70.9,69.5,71.8c38,0.9,70.6-28.3,71.5-69.4C356.4,208.2,327.1,175.5,285.7,174.2z"
		/>
	<linearGradient id="SVGID_2_" gradientUnits="userSpaceOnUse" x1="286.1223" y1="179.9375" x2="284.1223" y2="303.9375">
		<stop  offset="0" style="stop-color:#00EAD4"/>
		<stop  offset="1" style="stop-color:#0098BA"/>
	</linearGradient>
	<path class="st1" d="M285,298.9c-30.7,0-54.1-23.6-54-54.6c0-29.9,23.9-53.4,54.1-53.6c29.9-0.2,54.5,24.5,54.1,54.6
		C338.8,275.3,315.2,298.9,285,298.9z M285,281.9c19.7,0,36-16.1,36.2-35.8c0.2-19.7-16.3-36.4-36-36.4c-19.7,0-36,16.1-36.1,35.8
		C248.8,265.4,265.1,281.9,285,281.9z"/>
	<linearGradient id="SVGID_3_" gradientUnits="userSpaceOnUse" x1="234.3389" y1="355.2449" x2="234.3389" y2="355.2449">
		<stop  offset="0" style="stop-color:#00EAD4"/>
		<stop  offset="1" style="stop-color:#0098BA"/>
	</linearGradient>
	<path class="st2" d="M234.3,355.2"/>
</g>
<g>
	<linearGradient id="SVGID_4_" gradientUnits="userSpaceOnUse" x1="560.3585" y1="384" x2="560.3585" y2="524">
		<stop  offset="0" style="stop-color:#00EAD4"/>
		<stop  offset="1" style="stop-color:#0098BA"/>
	</linearGradient>
	<path class="st3" d="M755.6,444.2c-3.7,2-19.7,9-38.5,18c-4.9,2.3-6.5,2.1-6.9,7.7c-0.6,8.6-3.1,23.3-6,31.1
		c-0.8,2.2-0.6,3.9,1,5.9c9.6,12.5,19,25.3,28.7,37.8c2.9,3.8,2.4,6.9-0.1,10.4c-6.2,8.5-12.3,17-18.7,25.3c-4.7,6.3-6.5,6.6-14,3.9
		c-13.3-4.8-26.6-9.5-39.8-14.5c-2.5-0.9-5.4-0.5-7.5,1.2c-8.2,6.7-17.3,12-26.9,16.6c-2.5,1.2-3.6,2.8-4,5.7
		c-2,15.5-4.4,31-6.4,46.5c-0.6,4.5-3,6.4-7,7c-10.7,1.7-21.4,3.3-32.1,4.8c-7,1-8.6,0-11.6-6.5c-6.2-13.2-12.6-26.4-18.6-39.7
		c-1.6-3.5-3.8-3.9-8.8-4.3c-9.9-0.7-17.5-3.4-26.5-6.8c-3.8-1.5-5.9-0.4-8.3,1.5c-12.3,9.3-24.8,18.5-37,28
		c-3.6,2.8-6.7,2.6-10,0.2c-9-6.5-18-13.2-27-19.8c-4.2-3.1-5-6.7-3.2-11.8c5.3-14.1,10.2-28.5,15.4-42.7c1-2.7,1-4.6-0.7-6.9
		c-6.3-8-11.7-16.6-15.8-25.9c-1.4-3.2-4-3.7-6.8-4c-15.7-2.2-31.3-4.4-47-6.4c-4.5-0.6-6.5-3-7.2-7c-1.8-11-3.4-22-5-33.1
		c-0.7-4.8,0.7-8.1,5.6-10.3c13.9-6.3,27.6-13.1,41.5-19.4c3.5-1.6,5.1-3.8,5.6-7.4c1.1-8.8,2.9-17.5,5.9-25.8
		c1-2.7,0.6-5.8-1.2-8.1c-9.6-12.5-18.9-25.3-28.6-37.7c-3.3-4.2-3.6-7.9-0.4-12.2c6.2-8.3,12.2-16.7,18.4-24.9
		c4.8-6.4,6.4-6.6,14-3.8c14.5,5.3,29,10.5,43.5,15.7c2.1,0.8,3.8,0.4,5.5-1c7.7-6.2,16-11.3,24.9-15.6c2.8-1.4,3.7-3.4,4.1-6.2
		c2.1-15.8,4.3-31.6,6.3-47.4c0.6-4.5,2.6-7.3,7.2-8c11.5-1.7,23-3.6,34.5-5.2c4-0.6,6.8,1.2,8.6,5.2c6.6,14.3,13.6,28.5,20.2,42.8
		c1.1,2.4,2.2,3.6,5,4c10.2,1.5,20.3,3.5,30,7.1c2.8,1,4.5-0.2,6.3-1.6c12.3-9.3,24.6-18.6,36.9-27.9c6.1-4.6,7.5-4.7,13.6-0.3
		c7.9,5.8,15.9,11.6,23.7,17.5c6.5,4.9,6.8,6.4,4.1,13.9c-5.1,14-10.1,28.1-15.2,42.2c-0.8,2.2-0.6,3.6,0.8,5.4
		c6.7,8.5,12.5,17.6,17.3,27.4c1.1,2.2,2.7,3.1,5,3.4c15.2,2,30.3,4,45.4,6.2c7.4,1.1,8.5,2.4,9.5,9.7c1.3,9.2,2.6,18.6,4,27.8
		C762,438.1,762.3,440.6,755.6,444.2z M657.7,451c-0.8-54.9-43.5-97-96.8-96.8c-54.7,0.2-96.8,43-96.5,97
		c0.3,55.6,43.6,96.1,96.6,96.4C614.2,547.9,658.1,503.3,657.7,451z"/>
	<linearGradient id="SVGID_5_" gradientUnits="userSpaceOnUse" x1="561.3261" y1="384" x2="561.3261" y2="524">
		<stop  offset="0" style="stop-color:#00EAD4"/>
		<stop  offset="1" style="stop-color:#0098BA"/>
	</linearGradient>
	<path class="st4" d="M635.5,450.7c1,37.4-30.7,74-74.3,74c-39.9,0-74.5-32.5-74.2-75.2c0.4-41.5,35.3-74.9,76.9-73.6
		C602.7,377.2,636.6,410.5,635.5,450.7z M560.8,500c26.7,0.1,49.1-21.9,49.4-48.6c0.3-26.7-22-49.4-48.9-49.6
		c-26.9-0.3-49.5,22-49.5,48.9C511.6,477.7,533.6,499.8,560.8,500z"/>
	<linearGradient id="SVGID_6_" gradientUnits="userSpaceOnUse" x1="416.5359" y1="367.0983" x2="416.5359" y2="367.0983">
		<stop  offset="0" style="stop-color:#00EAD4"/>
		<stop  offset="1" style="stop-color:#0098BA"/>
	</linearGradient>
	<path class="st5" d="M416.5,367.1"/>
</g>
<g>
	<linearGradient id="SVGID_7_" gradientUnits="userSpaceOnUse" x1="301.82" y1="696.1669" x2="305.82" y2="892.1669">
		<stop  offset="0" style="stop-color:#00EAD4"/>
		<stop  offset="1" style="stop-color:#0098BA"/>
	</linearGradient>
	<path class="st6" d="M52.6,800c0-6.7,0.5-23.3,0.9-29c0.5-7.3,1.9-8.8,8.9-10.6c15.2-3.8,30.3-7.8,45.5-11.6
		c3.8-0.9,4.8-3.2,5.7-8.3c1.7-10,4.6-17.4,9.2-25.7c2.6-4.8,3.1-7.4,0.6-10.9c-9-12.6-17.8-25.3-26.8-37.9
		c-4.8-6.7-4.8-8.1,0.2-14.4c6-7.6,11.9-15.2,17.9-22.8c3.4-4.2,9.1-5.7,14.1-3.8c14.1,5.5,28.2,11,42.2,16.7c3.5,1.4,6.1,1.1,9-1.4
		c8.2-6.8,16.9-13,26.3-18c3.4-1.8,4.6-4.2,4.6-8c0.1-15.6,0.3-31.2,0.5-46.8c0.1-7,1.2-8.5,8.2-10.4c9.4-2.7,18.9-5.3,28.3-8
		c7.6-2.1,9.6-1.3,13.6,5c8.3,13.2,16.7,26.4,25,39.6c1.5,2.3,3.2,3.2,6.4,2.7c11.3-1.9,22.8-1.2,34.1,0.9c3.1,0.6,4.9-0.2,6.6-2.6
		c9.7-13.1,19.6-26,29.3-39.1c2.9-4,6.2-5.1,10.8-3.3c9.8,3.7,19.7,7.2,29.5,11c7,2.7,7.9,4.3,7.4,11.6c-1,15.6-1.9,31.2-3,46.8
		c-0.2,2.4,0.7,3.7,2.6,4.9c10.2,6.6,20.1,13.7,28.8,22.2c2.6,2.6,5.2,2.1,8.2,1.1c14.6-4.6,29.1-9.1,43.7-13.6
		c6.5-2,8.3-1.3,12.1,4.3c5.7,8.4,11.4,16.8,16.9,25.3c3.9,6.1,3.7,7.8-0.8,13.3c-9.7,11.8-19.4,23.7-29.2,35.4
		c-1.8,2.1-2.1,3.8-1.1,6.3c4.8,11.6,8.1,23.6,10.3,35.9c0.5,2.8,2.2,3.8,4.5,4.6c14.6,5,29.3,10,43.9,15c6.5,2.2,7.7,3.7,7.5,10.4
		c-0.3,9.8-0.6,19.6-1.1,29.5c-0.4,8.5-1.6,9.9-9.8,11.9c-14.5,3.7-28.9,7.5-43.5,11.1c-2.3,0.6-3.4,1.7-3.9,3.8
		c-3,12.5-7.3,24.5-13,36c-1.5,3.1,0.1,5,1.6,7.2c8.6,12.2,17.3,24.4,25.9,36.6c4.4,6.2,4.3,7.5-0.5,13.6
		c-5.8,7.3-11.5,14.7-17.3,22c-5.6,7.2-7.1,7.6-15.5,4.3c-13.8-5.4-27.6-10.7-41.3-16.3c-2.4-1-4-0.8-5.9,0.8
		c-9.8,8.1-20.1,15.3-31.4,21.2c-2.8,1.4-3,3.6-3,6.2c-0.1,14.8-0.3,29.6-0.4,44.4c0,8.6-0.9,9.8-9.2,12.1
		c-10.1,2.8-16.6,4.7-26.7,7.6c-4.8,1.7-10.2,1.5-13.6-4.1c-8-12.7-16.2-25.2-23.9-38c-2.4-4.1-5.1-4.7-10-4.1
		c-9.9,1.3-19.9,0.7-29.7-1.1c-5.5-1-8.4,0.6-11.4,4.8c-8.9,12.4-18.3,24.5-27.4,36.8c-3.4,4.6-7.2,3.1-13.8,0.7
		c-7.3-2.7-13.3-5.1-20.8-7.8c-8.5-3.1-13.2-4.3-12.6-11.7c1.2-15.6,1.9-31.3,3-46.9c0.2-3.1-0.6-5-3.2-6.6
		c-9.4-6.1-18.4-12.7-26.4-20.5c-2.8-2.8-5.5-3.4-9.4-2.2c-15.2,4.9-30.5,9.4-45.7,14.3c-3.7,1.2-7.7-0.2-9.9-3.4
		c-6.1-9-12.2-18-18.1-27.1c-3.7-5.8-3.5-7.6,1-12.9c10-12.1,19.9-24.1,30-36.1c1.9-2.3,2.4-4.4,1.2-7.3
		c-4.2-10.5-7.1-21.4-9.3-32.5c-0.8-4.1-3.3-4.8-8.2-6.5c-10.8-3.7-19.4-6.5-31.1-10.9C56.6,810.6,52.6,811.9,52.6,800z
		 M170.6,798.8c2.8,77,69.1,137.3,148.6,129c70.5-7.4,126.2-71,118.6-146.8c-6.9-68.9-68.5-127.7-148.1-119.2
		C218.7,669.4,168.9,730.4,170.6,798.8z"/>
	<linearGradient id="SVGID_8_" gradientUnits="userSpaceOnUse" x1="302.6641" y1="696.1497" x2="306.6641" y2="892.1497">
		<stop  offset="0" style="stop-color:#00EAD4"/>
		<stop  offset="1" style="stop-color:#0098BA"/>
	</linearGradient>
	<path class="st7" d="M202.1,794.8c-1-55.9,46-103.4,103.6-102.9c54.4,0.5,101.6,45.5,101.6,103.1c0,55.8-46.5,104.1-105.6,102.6
		C247.7,896.2,201.3,851.3,202.1,794.8z M373.3,795.6c-0.4-39-30.1-68.1-67.9-68.7c-37.2-0.6-68.4,30.7-68.4,67.7
		c0,38.5,29.8,68.9,68.2,68.9C343.4,863.4,372.5,833.7,373.3,795.6z"/>
	<linearGradient id="SVGID_9_" gradientUnits="userSpaceOnUse" x1="300.9174" y1="639.0402" x2="300.9174" y2="639.0402">
		<stop  offset="0" style="stop-color:#00EAD4"/>
		<stop  offset="1" style="stop-color:#0098BA"/>
	</linearGradient>
	<path class="st8" d="M300.9,639"/>
</g>
</svg>
